<?xml version="1.0" encoding="utf-8"?>
<!-- Generator: Adobe Illustrator 25.0.1, SVG Export Plug-In . SVG Version: 6.00 Build 0)  -->
<svg version="1.1" id="Layer_1" xmlns="http://www.w3.org/2000/svg" xmlns:xlink="http://www.w3.org/1999/xlink" x="0px" y="0px"
	 viewBox="0 0 332 332" style="enable-background:new 0 0 332 332;" xml:space="preserve">
<style type="text/css">
	.st0{display:none;}
	.st1{display:inline;fill:#081928;}
	.st2{display:inline;}
	.st3{fill-rule:evenodd;clip-rule:evenodd;fill:#ED1D61;}
	.st4{fill-rule:evenodd;clip-rule:evenodd;fill:#FFFFFF;}
	.st5{display:none;fill:#081928;}
	.st6{fill-rule:evenodd;clip-rule:evenodd;fill:#C82127;}
	.st7{fill:#FFFFFF;}
	.st8{fill:#D8D9D8;}
	.st9{fill:#B6B7B7;}
</style>
<g class="st0">
	<path class="st1" d="M4.5,376.2h323c26.9,0,48.7-21.8,48.7-48.7V4.5c0-26.9-21.8-48.7-48.7-48.7H4.5c-26.9,0-48.7,21.8-48.7,48.7
		v323C-44.2,354.4-22.4,376.2,4.5,376.2z"/>
	<g id="Propositions_1_" class="st2">
		<g id="Thumbnails_1_" transform="translate(-867.000000, -364.000000)">
			<g id="dark_1_" transform="translate(0.000000, 279.000000)">
				<g id="light_1_" transform="translate(120.000000, 75.000000)">
					<g id="muzikna_1_" transform="translate(739.000000, 10.000000)">
						<g transform="translate(8.000000, 0.000000)">
							<circle id="Oval_1_" class="st3" cx="166" cy="166" r="166"/>
							<path id="Path_1_" class="st4" d="M141.6,98.3c15.1,0,18.8,59.9,30.1,59.9s15.1-41.2,26.4-41.2s15.1,41.2,30.2,41.2
								s15.1-18.7,26.4-18.7s14.8,26.5,33.6,26.5c3.5,0,6.3,0,8.4-0.5c1.3-3.3,4.8-5.5,8.8-4.6c2.6,0.6,4.8,2.7,5.5,5.3
								c1.3,5-2.5,9.5-7.3,9.5c-3.2,0-6-2-7-4.8c-2.1-0.5-4.8-0.5-8.4-0.5c-18.8,0-22.3,26.5-33.6,26.5s-11.3-18.7-26.4-18.7
								s-18.8,41.2-30.2,41.2s-15.1-41.2-26.4-41.2s-15.1,59.9-30.1,59.9c-15.1,0-15.1-59.9-33.9-59.9c-18.8,0-18.8,22.5-30.1,22.5
								S66.9,170.4,48,170.4c-4.5,0-8.1,0.4-11,1.4c-1.6,2.8-4.9,4.5-8.5,3.6c-2.6-0.6-4.7-2.7-5.3-5.2c-1.3-5,2.5-9.5,7.3-9.5
								c2.9,0,5.5,1.7,6.7,4.1c2.7,1,6,1.2,10.9,1.2c18.8,0,18.2-30.3,29.5-30.3s11.3,22.5,30.1,22.5
								C126.6,158.2,126.6,98.3,141.6,98.3z"/>
						</g>
					</g>
				</g>
			</g>
		</g>
	</g>
</g>
<g>
	<path class="st5" d="M4.5,376.2h323c26.9,0,48.7-21.8,48.7-48.7V4.5c0-26.9-21.8-48.7-48.7-48.7H4.5c-26.9,0-48.7,21.8-48.7,48.7
		v323C-44.2,354.4-22.4,376.2,4.5,376.2z"/>
	<g id="Propositions_2_">
		<g id="Thumbnails_2_" transform="translate(-137.000000, -364.000000)">
			<g id="dark_2_" transform="translate(0.000000, 279.000000)">
				<g id="light_2_" transform="translate(120.000000, 75.000000)">
					<g id="ic-cinemana-logo_1_" transform="translate(17.000000, 10.000000)">
						<circle id="Oval_2_" class="st6" cx="166" cy="166" r="166"/>
						<g id="logo_1_" transform="translate(15.000000, 19.000000)">
							<path id="Path_2_" class="st7" d="M255.8,64l-40.6,55.3h-72.1c-21.8,0-37.8,13.5-37.8,27.7c0,13.7,15.1,26.9,36,27.6l1.8,0
								h112.6L215.3,230h-72.1c-50.2,0-92.7-36-92.7-83c0-46.3,41.2-82,90.5-83l2.2,0L255.8,64L255.8,64z"/>
							<path id="Combined-Shape_1_" class="st8" d="M107.3,138.3l0.1,0c-1.3,2.8-2,5.8-2,8.7c0,13.7,15.1,26.9,36,27.6l1.8,0h112.6
								L215.2,230h-72.1c-27.3,0-52.2-10.6-69.4-27.8L107.3,138.3z"/>
							<path class="st9" d="M141.4,174.6l1.8,0h112.6L215.3,230h-26L122,169.8C127.5,172.6,134.1,174.4,141.4,174.6z"/>
						</g>
					</g>
				</g>
			</g>
		</g>
	</g>
</g>
</svg>
